#!OML:ASF X:\für Bonn\!DataBase\2005_08_10_Bjorn_Final\c3d\bjorn.ASF
:FULLY-SPECIFIED
:DEGREES
144
root -20.8233 19.3633 -1.15471 1250.11 248.816 -167.564
lowerback -7.85073 3.62598 -0.987514
upperback 6.59621 5.46788 -5.51294
thorax 12.0646 2.77433 -4.47534
lowerneck -3.78379 -10.1073 6.09169
upperneck 10.563 -15.0384 7.1013
head 4.31487 -6.93785 0.603253
rclavicle 2.84262e-014 4.77083e-015
rhumerus 39.5904 -4.85328 -32.248
rradius 58.9891
rwrist -29.8917
rhand -8.68836 10.1196
rfingers 7.12502
rthumb 17.2464 -19.1351
lclavicle 2.84262e-014 4.77083e-015
lhumerus -28.076 16.4578 73.7917
lradius 16.391
lwrist -43.8818
lhand -13.6293 -6.8326
lfingers 7.12502
lthumb 12.4866 22.7744
rfemur -14.9147 -3.28427 11.1459
rtibia 29.3726
rfoot -9.15914 15.7025
rtoes -0.742517
lfemur -2.97744 -8.60193 -16.9482
ltibia 28.3705
lfoot -13.9104 -10.8925
ltoes -19.4709
145
root -20.8014 19.3639 -1.13566 1249.95 249.281 -167.404
lowerback -7.86677 3.62404 -1.07209
upperback 6.59107 5.47328 -5.49329
thorax 12.0576 2.7677 -4.40428
lowerneck -3.82802 -10.0243 5.91892
upperneck 10.7029 -14.9397 7.12561
head 4.3905 -6.88572 0.634876
rclavicle 1.10127e-013 -8.34896e-014
rhumerus 39.8134 -5.64477 -33.0092
rradius 59.2663
rwrist -30.3097
rhand -9.52433 10.4955
rfingers 7.12502
rthumb 16.4417 -18.8278
lclavicle 1.10127e-013 -8.34896e-014
lhumerus -27.7349 15.2515 74.4871
lradius 16.8523
lwrist -42.3299
lhand -13.9957 -7.19562
lfingers 7.12502
lthumb 12.1333 22.4325
rfemur -15.0353 -3.05663 11.1074
rtibia 29.3259
rfoot -8.94527 15.9544
rtoes -0.508897
lfemur -2.93081 -9.06576 -16.8685
ltibia 28.2741
lfoot -13.7716 -11.1762
ltoes -18.5222
146
root -20.7777 19.3621 -1.1161 1249.79 249.742 -167.235
lowerback -7.87495 3.65894 -1.10941
upperback 6.58141 5.5272 -5.5337
thorax 12.0575 2.79156 -4.41756
lowerneck -3.88318 -9.97296 5.91275
upperneck 10.847 -14.8958 7.13134
head 4.45524 -6.85563 0.632251
rclavicle 1.25234e-014 4.21423e-014
rhumerus 39.879 -6.54645 -33.8814
rradius 59.6045
rwrist -30.64
rhand -10.3826 10.8507
rfingers 7.12502
rthumb 15.6151 -18.5391
lclavicle 1.25234e-014 4.21423e-014
lhumerus -27.338 13.7189 75.1639
lradius 17.3579
lwrist -40.4831
lhand -14.4008 -7.42246
lfingers 7.12502
lthumb 11.7427 22.2284
rfemur -15.1781 -2.85915 11.063
rtibia 29.3041
rfoot -8.70456 16.2364
rtoes -0.165717
lfemur -2.87557 -9.53192 -16.7808
ltibia 28.156
lfoot -13.5806 -11.543
ltoes -17.3878
147
root -20.7536 19.3613 -1.09553 1249.6 250.245 -167.038
lowerback -7.89374 3.70318 -1.16022
upperback 6.54761 5.59411 -5.56466
thorax 12.0345 2.81988 -4.40963
lowerneck -3.86067 -9.91876 5.89348
upperneck 10.9911 -14.8379 7.12155
head 4.50428 -6.82229 0.632157
rclavicle -2.38542e-015 2.78299e-014
rhumerus 39.8929 -7.39446 -34.7239
rradius 60.0275
rwrist -30.8976
rhand -11.363 11.1932
rfingers 7.12502
rthumb 14.6708 -18.2678
lclavicle -2.38542e-015 2.78299e-014
lhumerus -27.006 12.3329 75.779
lradius 17.8738
lwrist -38.7556
lhand -14.865 -7.43635
lfingers 7.12502
lthumb 11.2949 22.2395
rfemur -15.3598 -2.63279 11.0156
rtibia 29.2991
rfoot -8.44894 16.5246
rtoes 0.264333
lfemur -2.81596 -10.0119 -16.6954
ltibia 28.0229
lfoot -13.3721 -11.9153
ltoes -16.035
148
root -20.7275 19.3579 -1.07429 1249.38 250.72 -166.836
lowerback -7.8584 3.72784 -1.2149
upperback 6.52112 5.6323 -5.59839
thorax 11.9843 2.83434 -4.41074
lowerneck -3.79404 -9.86107 5.89088
upperneck 11.0654 -14.766 7.12571
head 4.51872 -6.78596 0.639342
rclavicle 1.20265e-013 -7.39479e-014
rhumerus 39.8749 -8.24019 -35.5557
rradius 60.5588
rwrist -31.1471
rhand -12.4424 11.3341
rfingers 7.12502
rthumb 13.6307 -18.1996
lclavicle 1.20265e-013 -7.39479e-014
lhumerus -26.7176 10.8952 76.375
lradius 18.4406
lwrist -36.9657
lhand -15.243 -7.38494
lfingers 7.12502
lthumb 10.9303 22.3106
rfemur -15.5116 -2.40133 10.9609
rtibia 29.3155
rfoot -8.23243 16.8001
rtoes 0.557361
lfemur -2.71382 -10.538 -16.6132
ltibia 27.8731
lfoot -13.0814 -12.3583
ltoes -14.2732
149
root -20.6992 19.3549 -1.05236 1249.21 251.23 -166.663
lowerback -7.82575 3.74837 -1.27158
upperback 6.47777 5.66276 -5.61212
thorax 11.9127 2.84394 -4.38983
lowerneck -3.74226 -9.80086 5.88867
upperneck 11.1977 -14.6909 7.07115
head 4.55158 -6.74707 0.62523
rclavicle -7.35503e-015 -3.26007e-014
rhumerus 39.8697 -9.07634 -36.4025
rradius 61.1661
rwrist -31.4363
rhand -13.557 11.3386
rfingers 7.12502
rthumb 12.5562 -18.2641
lclavicle -7.35503e-015 -3.26007e-014
lhumerus -26.5362 9.68288 76.8986
lradius 19.0638
lwrist -35.3749
lhand -15.5845 -7.34186
lfingers 7.12502
lthumb 10.601 22.3708
rfemur -15.7103 -2.16629 10.9256
rtibia 29.3396
rfoot -7.99138 17.0894
rtoes 0.883436
lfemur -2.63558 -11.05 -16.5078
ltibia 27.7123
lfoot -12.755 -12.8543
ltoes -12.4077
150
root -20.67 19.3508 -1.0293 1249.04 251.741 -166.472
lowerback -7.78683 3.77765 -1.31302
upperback 6.42288 5.70459 -5.65616
thorax 11.8308 2.86184 -4.40922
lowerneck -3.65756 -9.74659 5.94687
upperneck 11.2888 -14.6256 7.04948
head 4.56142 -6.71294 0.615102
rclavicle 8.94531e-014 -6.99722e-014
rhumerus 39.8011 -9.92501 -37.2517
rradius 61.8389
rwrist -31.7758
rhand -14.5192 11.1477
rfingers 7.12502
rthumb 11.6284 -18.5097
lclavicle 8.94531e-014 -6.99722e-014
lhumerus -26.3604 8.68751 77.2956
lradius 19.6553
lwrist -34.0965
lhand -15.9289 -7.40705
lfingers 7.12502
lthumb 10.2688 22.3223
rfemur -15.9265 -1.97618 10.8896
rtibia 29.3656
rfoot -7.74029 17.3984
rtoes 1.11786
lfemur -2.56523 -11.5507 -16.4045
ltibia 27.541
lfoot -12.4268 -13.4055
ltoes -10.4658
151
root -20.6404 19.3468 -1.0061 1248.75 252.31 -166.183
lowerback -7.7682 3.8023 -1.41481
upperback 6.39784 5.74661 -5.66178
thorax 11.7839 2.8726 -4.35143
lowerneck -3.64752 -9.68104 5.95407
upperneck 11.4162 -14.5452 6.98281
head 4.59872 -6.6706 0.593463
rclavicle -6.26172e-014 2.06736e-014
rhumerus 39.7609 -10.7175 -37.9699
rradius 62.573
rwrist -32.323
rhand -15.6108 10.9637
rfingers 7.12502
rthumb 10.5756 -18.7502
lclavicle -6.26172e-014 2.06736e-014
lhumerus -26.1822 7.76028 77.7408
lradius 20.2817
lwrist -32.7965
lhand -16.2706 -7.42273
lfingers 7.12502
lthumb 9.93908 22.3226
rfemur -16.1338 -1.6831 10.8321
rtibia 29.3855
rfoot -7.51031 17.6739
rtoes 1.29399
lfemur -2.45855 -12.0384 -16.3272
ltibia 27.3554
lfoot -12.07 -13.9591
ltoes -8.33863
152
root -20.61 19.3436 -0.979641 1248.5 252.917 -165.927
lowerback -7.77258 3.82267 -1.47607
upperback 6.3811 5.77905 -5.65962
thorax 11.7631 2.88192 -4.3085
lowerneck -3.61485 -9.60732 5.95342
upperneck 11.4945 -14.4453 6.92022
head 4.61416 -6.62201 0.577938
rclavicle -4.11484e-014 6.36111e-015
rhumerus 39.705 -11.4468 -38.5881
rradius 63.3696
rwrist -32.8706
rhand -16.8902 10.7986
rfingers 7.12502
rthumb 9.34133 -18.9744
lclavicle -4.11484e-014 6.36111e-015
lhumerus -25.9991 7.05495 78.1153
lradius 20.878
lwrist -31.7426
lhand -16.7024 -7.46969
lfingers 7.12502
lthumb 9.52248 22.2951
rfemur -16.3512 -1.40728 10.7871
rtibia 29.3937
rfoot -7.23801 18.0185
rtoes 1.54225
lfemur -2.34498 -12.5266 -16.2365
ltibia 27.1568
lfoot -11.6749 -14.5446
ltoes -6.06716
153
root -20.5789 19.3404 -0.953875 1248.09 253.535 -165.496
lowerback -7.8097 3.83375 -1.62618
upperback 6.37824 5.81135 -5.64882
thorax 11.7674 2.88279 -4.2047
lowerneck -3.59751 -9.53318 5.96907
upperneck 11.5796 -14.3435 6.82608
head 4.63079 -6.57239 0.548675
rclavicle 1.17283e-014 -3.65764e-014
rhumerus 39.66 -12.1442 -39.1138
rradius 64.1498
rwrist -33.4779
rhand -18.1551 10.694
rfingers 7.12502
rthumb 8.12062 -19.13
lclavicle 1.17283e-014 -3.65764e-014
lhumerus -25.8268 6.39302 78.4969
lradius 21.513
lwrist -30.717
lhand -17.1152 -7.49886
lfingers 7.12502
lthumb 9.12421 22.2838
rfemur -16.5821 -1.09562 10.6994
rtibia 29.3941
rfoot -6.90917 18.333
rtoes 2.10697
lfemur -2.22881 -13.05 -16.1878
ltibia 26.938
lfoot -11.2991 -15.143
ltoes -4.12086
